<?xml version="1.0" encoding="UTF-8" standalone="no"?>
<!-- Created with Inkscape (http://www.inkscape.org/) -->

<svg
   xmlns:dc="http://purl.org/dc/elements/1.1/"
   xmlns:cc="http://creativecommons.org/ns#"
   xmlns:rdf="http://www.w3.org/1999/02/22-rdf-syntax-ns#"
   xmlns:svg="http://www.w3.org/2000/svg"
   xmlns="http://www.w3.org/2000/svg"
   xmlns:sodipodi="http://sodipodi.sourceforge.net/DTD/sodipodi-0.dtd"
   xmlns:inkscape="http://www.inkscape.org/namespaces/inkscape"
   width="291"
   height="75.199997"
   id="svg3239"
   version="1.1"
   inkscape:version="0.48.0 r9654"
   sodipodi:docname="New document 2">
  <defs
     id="defs3241" />
  <sodipodi:namedview
     id="base"
     pagecolor="#ffffff"
     bordercolor="#666666"
     borderopacity="1.0"
     inkscape:pageopacity="0.0"
     inkscape:pageshadow="2"
     inkscape:zoom="2.8"
     inkscape:cx="135.53731"
     inkscape:cy="36.487437"
     inkscape:document-units="px"
     inkscape:current-layer="layer1"
     showgrid="false"
     fit-margin-top="0"
     fit-margin-left="0"
     fit-margin-right="0"
     fit-margin-bottom="0"
     inkscape:window-width="1280"
     inkscape:window-height="750"
     inkscape:window-x="-8"
     inkscape:window-y="-8"
     inkscape:window-maximized="1" />
  <metadata
     id="metadata3244">
    <rdf:RDF>
      <cc:Work
         rdf:about="">
        <dc:format>image/svg+xml</dc:format>
        <dc:type
           rdf:resource="http://purl.org/dc/dcmitype/StillImage" />
        <dc:title></dc:title>
      </cc:Work>
    </rdf:RDF>
  </metadata>
  <g
     inkscape:label="Layer 1"
     inkscape:groupmode="layer"
     id="layer1"
     transform="translate(-224.45723,-482.60379)">
    <g
       transform="matrix(0.93381071,0,0,0.93381071,102.18763,297.89481)"
       id="g90">
      <path
         style="fill:#e21c2a;stroke:none"
         d="m 321.71,275.086 -12.327,0 0,-44.374 c 11.846,-13.991 29.384,-11.616 32.099,-10.096 l -4.767,10.319 c -1.783,-0.644 -3.718,-0.659 -4.9,-0.643 -4,-0.001 -7.193,1.084 -10.105,3.385 l 0,41.409 z"
         id="path92"
         inkscape:connector-curvature="0" />
      <path
         style="fill:#e21c2a;stroke:none"
         d="m 321.71,275.086 0,-0.5 -11.827,0 0,-43.874 -0.5,0 0.383,0.322 c 7.567,-8.94 17.492,-11.088 24.27,-11.09 1.83,0 3.427,0.157 4.672,0.378 1.243,0.217 2.152,0.514 2.529,0.73 l 0.246,-0.436 -0.454,-0.21 -4.769,10.321 0.455,0.208 0.17,-0.469 c -1.667,-0.601 -3.41,-0.676 -4.623,-0.677 -0.161,0 -0.314,0.001 -0.455,0.003 l 0.008,0.499 0,-0.5 c -4.089,-0.004 -7.424,1.125 -10.415,3.493 l -0.19,0.15 0,41.652 0.5,0 0,-0.5 0,0.5 0.5,0 0,-41.409 -0.5,0 0.311,0.392 c 2.834,-2.234 5.883,-3.272 9.794,-3.278 l 0.007,0 0,0 c 0.137,-0.002 0.283,-0.002 0.44,-0.002 1.165,-0.002 2.802,0.081 4.282,0.618 l 0.432,0.156 5.155,-11.157 -0.405,-0.227 c -0.574,-0.317 -1.529,-0.606 -2.844,-0.841 -1.309,-0.232 -2.959,-0.395 -4.846,-0.395 -6.971,-0.001 -17.224,2.222 -25.034,11.446 l -0.119,0.139 0,45.059 13.327,0 0,-0.501 -0.5,0 z"
         id="path94"
         inkscape:connector-curvature="0" />
      <path
         style="fill:#e21c2a;stroke:none"
         d="m 294.559,215.916 c -4.434,0 -7.93,-3.507 -7.93,-7.956 0,-4.377 3.614,-7.949 8.059,-7.949 2.148,0 4.172,0.843 5.65,2.374 1.443,1.51 2.222,3.492 2.16,5.601 0.001,4.423 -3.475,7.93 -7.939,7.93 m 6.43,59.17 -11.98,0 -0.1,-52.203 12.08,-1.97 0,54.173 z"
         id="path96"
         inkscape:connector-curvature="0" />
      <path
         style="fill:#e21c2a;stroke:none"
         d="m 294.559,215.416 c -4.163,-0.004 -7.426,-3.276 -7.431,-7.456 0.001,-2.049 0.845,-3.908 2.214,-5.26 1.37,-1.353 3.258,-2.189 5.346,-2.189 2.017,0 3.906,0.79 5.29,2.222 l -0.001,-0.003 c 1.302,1.366 2.024,3.129 2.026,5.024 l -0.004,0.219 0,0.007 0,0.006 c -0.006,4.154 -3.245,7.425 -7.44,7.43 l 0,1 c 2.364,0 4.481,-0.931 5.997,-2.454 1.519,-1.519 2.444,-3.632 2.442,-5.976 l -0.499,0 0.5,0.015 0.004,-0.247 c 0,-2.151 -0.827,-4.171 -2.304,-5.714 l -0.001,-0.003 c -1.573,-1.63 -3.731,-2.527 -6.01,-2.526 -4.717,0 -8.557,3.789 -8.559,8.449 0,2.355 0.928,4.476 2.448,5.998 1.519,1.526 3.632,2.459 5.982,2.458 l 0,-1 z m 6.43,59.67 0,-0.5 -11.48,0 -0.1,-51.279 11.08,-1.806 0,53.585 0.5,0 0,-0.5 0,0.5 0.5,0 0,-54.761 -13.081,2.133 0.103,53.129 12.978,0 0,-0.501 -0.5,0 z"
         id="path98"
         inkscape:connector-curvature="0" />
      <path
         style="fill:#e21c2a;stroke:none"
         d="m 362.847,275.806 c -10.923,0 -17.422,-5.465 -17.422,-14.653 l 10e-4,-53.889 12.388,-1.993 0,15.422 7.931,0 0,9.598 -7.931,0 0,30.611 c 0,4.749 1.708,6.06 8.322,6.429 l 0.174,0.031 0,8.214 -0.159,0.085 c -1.133,0.115 -2.243,0.145 -3.304,0.145 z"
         id="path100"
         inkscape:connector-curvature="0" />
      <path
         style="fill:#e21c2a;stroke:none"
         d="m 362.847,275.306 c -5.383,0 -9.614,-1.347 -12.486,-3.764 -2.869,-2.419 -4.43,-5.91 -4.436,-10.389 l 0,-53.462 11.389,-1.832 0,15.334 7.931,0 0,8.598 -7.931,0 0,31.111 c 0.002,1.218 0.108,2.239 0.396,3.114 0.424,1.316 1.321,2.265 2.693,2.832 1.369,0.574 3.202,0.841 5.705,0.983 l 0.028,-0.5 -0.085,0.494 0.174,0.029 0.085,-0.492 -0.499,0 0,8.214 0.499,0 -0.233,-0.442 -0.161,0.085 0.235,0.442 -0.05,-0.497 c -1.109,0.112 -2.201,0.142 -3.254,0.142 l 0,1 c 1.071,0 2.198,-0.03 3.354,-0.148 l 0.098,-0.009 0.247,-0.131 0.265,-0.141 0,-8.936 -0.591,-0.102 -0.029,-0.006 -0.028,0 c -3.282,-0.177 -5.279,-0.619 -6.363,-1.47 -0.546,-0.425 -0.9,-0.941 -1.141,-1.661 -0.238,-0.719 -0.344,-1.641 -0.344,-2.8 l 0,-30.111 7.93,0 0,-10.598 -7.93,0 0,-15.508 -13.389,2.153 0,54.315 c -0.007,4.708 1.681,8.544 4.792,11.154 3.109,2.613 7.587,3.999 13.129,3.999 l 0,-1 z"
         id="path102"
         inkscape:connector-curvature="0" />
      <path
         style="fill:#e21c2a;stroke:none"
         d="m 392.359,229.382 c 5.497,0 7.816,5.585 8.216,10.738 l -17.16,-0.001 c 0.772,-5.129 2.999,-10.737 8.944,-10.737 m 17.144,33.07 c 0,0 -8.581,3.96 -13.798,4.074 l -0.362,0 c -3.061,0 -5.828,-1.194 -7.997,-3.464 -3.015,-3.13 -4.601,-8.004 -4.557,-13.793 l 30.499,0 -0.027,-0.876 c -0.257,-19.298 -7.004,-28.3 -21.239,-28.3 -15.988,-10e-4 -21.837,14.874 -21.96,28.757 -0.1,8.803 3.481,17.401 9.358,22.436 3.596,3.086 8.602,4.695 14.504,4.695 3.189,0 6.579,-0.465 9.783,-1.39 3.626,-0.949 9.532,-4.53 9.532,-4.53 l -3.736,-7.609 z"
         id="path104"
         inkscape:connector-curvature="0" />
      <path
         style="fill:#e21c2a;stroke:none"
         d="m 392.359,229.882 c 1.291,0 2.367,0.324 3.288,0.88 1.378,0.834 2.416,2.223 3.143,3.894 0.728,1.67 1.139,3.615 1.287,5.503 l 0.498,-0.04 0,-0.5 -17.16,0 0,0.5 0.494,0.076 c 0.379,-2.522 1.12,-5.143 2.452,-7.085 0.665,-0.973 1.47,-1.776 2.451,-2.338 0.981,-0.561 2.14,-0.889 3.547,-0.89 l 0,-1.001 c -1.563,0 -2.912,0.373 -4.045,1.024 -1.701,0.975 -2.903,2.553 -3.75,4.35 -0.846,1.8 -1.349,3.835 -1.644,5.79 l -0.086,0.574 18.281,0 -0.042,-0.538 c -0.206,-2.636 -0.894,-5.39 -2.275,-7.534 -0.69,-1.07 -1.56,-1.989 -2.634,-2.641 -1.071,-0.65 -2.346,-1.025 -3.805,-1.025 l 0,1.001 z m 17.144,32.57 -0.21,-0.455 c 0,0 -0.129,0.061 -0.372,0.167 -0.847,0.377 -3.05,1.323 -5.597,2.184 -2.544,0.861 -5.447,1.634 -7.63,1.678 l 0.012,0.5 0,-0.5 -0.363,0 c -2.931,-0.004 -5.549,-1.131 -7.635,-3.309 l -0.001,-10e-4 c -2.857,-2.96 -4.42,-7.614 -4.418,-13.208 l 0,-0.234 -0.5,-0.005 0,0.5 31.015,0 -0.044,-1.391 -0.499,0.015 0.499,-0.005 c -0.131,-9.705 -1.881,-16.883 -5.477,-21.682 -3.597,-4.807 -9.046,-7.123 -16.261,-7.113 -8.155,-0.011 -13.815,3.831 -17.35,9.403 -3.547,5.569 -5.044,12.84 -5.11,19.848 0,0.123 -0.002,0.247 -0.002,0.37 0.005,8.81 3.606,17.367 9.534,22.452 3.708,3.181 8.839,4.816 14.83,4.815 3.238,0 6.67,-0.472 9.921,-1.41 l -0.138,-0.481 0.128,0.483 c 1.89,-0.496 4.283,-1.639 6.229,-2.66 1.945,-1.021 3.429,-1.921 3.433,-1.924 l 0.392,-0.238 -4.153,-8.458 -0.443,0.204 0.21,0.455 -0.449,0.22 3.736,7.609 0.449,-0.22 -0.259,-0.428 c -0.001,0 -0.364,0.22 -0.97,0.569 -1.81,1.043 -5.819,3.227 -8.43,3.905 l -0.008,0.003 -0.003,0 c -3.158,0.912 -6.505,1.372 -9.645,1.371 -5.813,0 -10.695,-1.585 -14.178,-4.574 -5.663,-4.845 -9.189,-13.152 -9.186,-21.693 0,-0.12 0.002,-0.239 0.002,-0.359 0.059,-6.875 1.546,-13.983 4.953,-19.321 3.415,-5.338 8.674,-8.931 16.507,-8.941 7.02,0.009 12.06,2.193 15.461,6.713 3.401,4.525 5.152,11.499 5.277,21.095 l 0.001,0.002 0.01,0.365 -30.477,0 -0.004,0.495 -0.001,0.245 c 0.001,5.773 1.605,10.687 4.697,13.901 l -10e-4,-0.002 c 2.254,2.363 5.166,3.622 8.357,3.619 l 0.364,0 0.011,0 c 2.722,-0.064 6.188,-1.099 9.013,-2.109 2.818,-1.012 4.974,-2.007 4.981,-2.012 l -0.208,-0.453 -0.449,0.22 0.449,-0.22 z"
         id="path106"
         inkscape:connector-curvature="0" />
      <path
         style="fill:#e21c2a;stroke:none"
         d="m 436.783,275.931 c -10.648,0 -17.014,-5.519 -17.014,-14.778 l 10e-4,-53.887 12.065,-2.067 0,55.828 c 0,4.754 1.678,6.075 8.198,6.304 l 0.23,0.011 0,8.369 -0.176,0.069 c -1.149,0.102 -2.248,0.151 -3.304,0.151 z"
         id="path108"
         inkscape:connector-curvature="0" />
      <path
         style="fill:#e21c2a;stroke:none"
         d="m 436.783,275.431 c -5.241,-10e-4 -9.367,-1.358 -12.171,-3.795 -2.803,-2.438 -4.338,-5.965 -4.343,-10.483 l 10e-4,-53.466 11.065,-1.894 0,55.234 c 0,1.218 0.105,2.241 0.387,3.114 0.417,1.314 1.304,2.264 2.661,2.811 1.355,0.556 3.164,0.79 5.633,0.879 l -0.008,0 0.233,0.01 0.022,-0.499 -0.501,0 0,8.369 0.501,0 -0.184,-0.465 -0.176,0.069 0.184,0.465 -0.044,-0.499 c -1.136,0.101 -2.221,0.15 -3.26,0.15 l 0,1 c 1.071,0 2.185,-0.051 3.348,-0.153 l 0.072,-0.006 0.243,-0.096 0.317,-0.125 0,-9.188 -0.708,-0.032 -0.003,0 c -3.234,-0.106 -5.199,-0.517 -6.259,-1.35 -0.534,-0.416 -0.883,-0.929 -1.119,-1.65 -0.235,-0.718 -0.341,-1.644 -0.339,-2.804 l 0,-56.421 -13.065,2.239 0,54.308 c -0.004,4.741 1.643,8.603 4.686,11.239 3.039,2.637 7.42,4.039 12.827,4.039 l 0,-1 z"
         id="path110"
         inkscape:connector-curvature="0" />
      <path
         style="fill:#e21c2a;stroke:none"
         d="m 268.091,263.473 c -1.527,1.239 -4.89,2.989 -8.469,2.989 -5.702,-0.094 -9.233,-4.855 -9.233,-9.169 0,-4.824 3.531,-7.939 8.967,-7.939 l 8.735,0.116 0,14.003 z m 12.285,-26.897 c 0,-10.965 -9.528,-16.85 -18.477,-16.85 -7.45,0.123 -12.321,1.43 -19.267,5.18 l -0.702,0.4 3.691,8.509 0.83,-0.39 c 5.811,-2.928 9.048,-3.856 13.371,-3.856 4.1,0 8.514,2.861 8.514,7.456 l 10e-4,2.7 -11.387,0 c -11.215,0 -19.194,7.319 -19.417,17.789 0,10.018 8.225,18.327 18.331,18.582 0.275,0 0.552,0.015 0.846,0.015 9.029,0 17.369,-3.38 23.528,-9.539 l 0.256,-0.236 -0.118,-29.76 z"
         id="path112"
         inkscape:connector-curvature="0" />
      <path
         style="fill:#e21c2a;stroke:none"
         d="m 268.091,263.473 -0.315,-0.39 c -1.434,1.174 -4.742,2.889 -8.154,2.878 l 10e-4,0.501 0.008,-0.501 c -2.711,-0.047 -4.881,-1.19 -6.395,-2.84 -1.514,-1.647 -2.349,-3.807 -2.347,-5.828 0.004,-2.291 0.826,-4.117 2.277,-5.404 1.452,-1.285 3.566,-2.035 6.19,-2.035 l 0,-0.5 -0.005,0.5 8.241,0.108 0,13.511 0.499,0 -0.315,-0.39 0.315,0.39 0.5,0 0,-14.498 -9.233,-0.121 -0.002,0 c -2.81,0 -5.18,0.807 -6.853,2.286 -1.675,1.476 -2.618,3.62 -2.615,6.153 0.002,2.293 0.933,4.671 2.611,6.505 1.677,1.833 4.125,3.116 7.115,3.164 l 0.008,0 10e-4,0 c 3.746,-0.01 7.163,-1.796 8.783,-3.101 l 0.185,-0.15 0,-0.238 -0.5,0 z m 12.285,-26.897 0.501,0 c 0.005,-5.631 -2.465,-10.005 -6.069,-12.925 -3.604,-2.923 -8.326,-4.424 -12.909,-4.426 l -0.007,0.001 c -7.506,0.117 -12.515,1.464 -19.497,5.241 l -0.006,0.003 -0.707,0.4 -0.39,0.222 4.075,9.394 1.304,-0.612 0.006,-0.002 c 5.794,-2.915 8.901,-3.799 13.145,-3.803 1.935,-0.002 3.964,0.682 5.482,1.896 1.521,1.217 2.529,2.928 2.533,5.06 l 0,2.2 -10.887,0 c -5.715,0 -10.643,1.869 -14.169,5.1 -3.526,3.229 -5.635,7.819 -5.748,13.178 l 0,0.006 0,0.005 c 0.003,10.298 8.442,18.817 18.818,19.081 l 0.006,10e-4 0.007,0 c 0.256,-10e-4 0.535,0.015 0.846,0.015 9.153,0.001 17.628,-3.431 23.881,-9.685 l -0.353,-0.354 0.339,0.367 0.254,-0.234 0.163,-0.15 -0.117,-29.981 -0.501,0.002 -0.5,0.002 0.116,29.54 -0.093,0.086 -0.008,0.007 -0.007,0.008 c -6.062,6.063 -14.269,9.39 -23.174,9.392 -0.275,0 -0.552,-0.015 -0.846,-0.015 l 0,0.5 0.014,-0.5 c -9.836,-0.246 -17.849,-8.344 -17.845,-18.082 l -0.5,0 0.5,0.01 c 0.112,-5.11 2.103,-9.414 5.425,-12.462 3.323,-3.045 7.992,-4.836 13.492,-4.836 l 11.887,-0.001 0,-3.2 c 0.002,-2.463 -1.197,-4.48 -2.908,-5.842 -1.715,-1.365 -3.941,-2.112 -6.107,-2.114 -4.403,-0.006 -7.77,0.968 -13.596,3.91 l 0.225,0.446 -0.212,-0.452 -0.365,0.171 -3.307,-7.626 0.312,-0.176 -0.247,-0.436 0.238,0.44 c 6.91,-3.722 11.64,-4.993 19.037,-5.122 l -0.008,-0.498 0,0.5 c 4.367,-0.002 8.883,1.44 12.28,4.201 3.397,2.764 5.693,6.815 5.697,12.149 l 0.5,0 z"
         id="path114"
         inkscape:connector-curvature="0" />
      <path
         style="fill:#e21c2a;stroke:none"
         d="m 176.994,200.854 c -7.683,1.662 -15.367,5.178 -22.144,9.638 -6.604,4.351 -12.144,9.466 -16.002,14.518 -3.688,4.822 -5.77,9.511 -5.877,13.436 -0.107,3.719 1.564,6.749 5.35,8.623 0.463,0.231 0.951,0.409 1.45,0.534 0.488,0.125 1,0.201 1.519,0.222 0.521,0.029 1.047,0 1.591,-0.055 0.548,-0.061 1.106,-0.167 1.678,-0.311 1.357,-0.345 2.802,-0.904 4.318,-1.641 1.515,-0.733 3.106,-1.643 4.763,-2.673 1.675,-1.042 3.427,-2.205 5.217,-3.439 1.812,-1.251 3.697,-2.57 5.611,-3.915 1.94,-1.366 3.918,-2.734 5.913,-4.07 2.011,-1.337 4.038,-2.637 6.041,-3.82 2.033,-1.191 4.03,-2.266 5.961,-3.141 1.944,-0.882 3.814,-1.572 5.568,-1.991 1.122,-0.275 2.191,-0.426 3.206,-0.456 1.012,-0.039 1.948,0.059 2.827,0.289 0.858,0.239 1.645,0.61 2.342,1.133 0.69,0.512 1.3,1.178 1.813,2.007 2.939,4.725 2.384,10.209 -0.041,15.624 -2.238,5.008 -6.117,10.032 -10.459,14.486 -4.11,4.215 -8.729,8.01 -12.941,10.895 -4.089,2.805 -7.924,4.84 -10.654,5.594 -0.542,0.16 -1.051,0.26 -1.511,0.31 -0.454,0.055 -0.864,0.044 -1.224,-0.014 -0.358,-0.056 -0.665,-0.181 -0.915,-0.37 -0.241,-0.186 -0.424,-0.436 -0.543,-0.754 -0.593,-1.647 0.251,-3.58 1.762,-5.625 1.555,-2.121 3.799,-4.336 5.856,-6.485 2.113,-2.21 4.038,-4.34 4.832,-6.22 0.824,-1.94 0.457,-3.619 -2.126,-4.869 -0.425,-0.21 -0.855,-0.37 -1.305,-0.489 -0.438,-0.116 -0.889,-0.19 -1.348,-0.23 -0.468,-0.041 -0.924,-0.03 -1.389,0.019 -0.473,0.04 -0.927,0.131 -1.399,0.25 -2.508,0.641 -4.96,2.3 -7.064,4.525 -2.048,2.165 -3.722,4.815 -4.822,7.529 -1.059,2.604 -1.567,5.234 -1.387,7.544 0.179,2.224 0.987,4.159 2.558,5.55 0.686,0.598 1.472,1.059 2.336,1.389 0.844,0.308 1.773,0.5 2.76,0.579 0.981,0.072 2.026,0.027 3.121,-0.119 1.096,-0.14 2.243,-0.381 3.424,-0.715 4.5,-1.271 9.744,-3.894 14.949,-7.375 5.397,-3.608 10.961,-8.268 15.768,-13.507 5.182,-5.629 9.665,-12.105 12.142,-18.812 2.775,-7.471 3.152,-15.456 -0.932,-23.014 -1.353,-2.508 -3.07,-4.595 -5.092,-6.281 -2.093,-1.747 -4.49,-3.036 -7.131,-3.917 -2.699,-0.899 -5.62,-1.351 -8.699,-1.402 -3.127,-0.054 -6.374,0.307 -9.671,1.016 z"
         id="path116"
         inkscape:connector-curvature="0" />
      <path
         style="fill:#e21c2a;stroke:none"
         d="m 176.888,200.366 c -7.757,1.678 -15.491,5.22 -22.313,9.708 -6.647,4.379 -12.225,9.527 -16.124,14.632 -3.725,4.875 -5.862,9.635 -5.98,13.727 -0.003,0.115 -0.005,0.231 -0.005,0.346 -0.001,1.862 0.442,3.581 1.377,5.067 0.934,1.487 2.352,2.73 4.256,3.671 0.495,0.247 1.016,0.439 1.551,0.572 l -0.011,-0.003 0.008,0.003 c 0.523,0.134 1.07,0.213 1.622,0.236 l 0.021,-0.5 -0.028,0.498 c 0.151,0.01 0.302,0.013 0.452,0.013 0.406,0 0.81,-0.027 1.217,-0.068 l 0.005,-0.002 c 0.574,-0.062 1.155,-0.172 1.747,-0.323 1.399,-0.355 2.873,-0.927 4.412,-1.674 1.537,-0.746 3.142,-1.664 4.809,-2.7 1.684,-1.046 3.442,-2.215 5.237,-3.451 1.814,-1.253 3.7,-2.573 5.615,-3.918 1.938,-1.364 3.913,-2.731 5.904,-4.063 2.006,-1.334 4.024,-2.629 6.016,-3.805 2.021,-1.186 4.003,-2.252 5.913,-3.117 1.923,-0.874 3.767,-1.552 5.478,-1.96 1.095,-0.268 2.13,-0.414 3.103,-0.442 l 0.008,0 -0.002,0 c 0.137,-0.006 0.271,-0.008 0.406,-0.008 0.812,0 1.565,0.095 2.275,0.281 l 0.127,-0.484 -0.133,0.481 c 0.806,0.224 1.532,0.569 2.176,1.052 l 0.002,0.002 c 0.636,0.472 1.203,1.087 1.684,1.868 1.338,2.152 1.921,4.452 1.923,6.855 0,2.682 -0.735,5.492 -1.995,8.301 -2.2,4.927 -6.044,9.917 -10.36,14.342 -4.084,4.189 -8.68,7.966 -12.866,10.831 -4.058,2.787 -7.874,4.802 -10.504,5.525 l -0.007,0.002 -0.001,0 c -0.515,0.152 -0.996,0.246 -1.425,0.293 l -0.004,10e-4 c -0.184,0.022 -0.359,0.032 -0.523,0.032 -0.203,0 -0.39,-0.017 -0.561,-0.044 l -0.004,-10e-4 c -0.289,-0.046 -0.513,-0.14 -0.691,-0.275 l 0.004,0.003 0,0 c -0.165,-0.128 -0.288,-0.291 -0.379,-0.532 l -0.469,0.175 0.471,-0.171 c -0.11,-0.303 -0.162,-0.618 -0.162,-0.953 -0.008,-1.186 0.698,-2.647 1.855,-4.204 1.519,-2.073 3.752,-4.281 5.814,-6.436 2.12,-2.223 4.076,-4.358 4.932,-6.371 0.271,-0.636 0.432,-1.269 0.432,-1.897 0.004,-0.712 -0.22,-1.411 -0.69,-2.021 -0.468,-0.612 -1.165,-1.139 -2.11,-1.596 l 0.003,0.001 c -0.454,-0.223 -0.917,-0.396 -1.398,-0.523 -0.47,-0.123 -0.947,-0.203 -1.434,-0.245 -0.209,-0.019 -0.415,-0.027 -0.621,-0.027 -0.289,-0.001 -0.575,0.017 -0.862,0.046 l 0.052,0.497 -0.042,-0.497 c -0.509,0.042 -0.992,0.14 -1.479,0.263 -2.635,0.675 -5.153,2.392 -7.306,4.665 -2.093,2.216 -3.798,4.914 -4.922,7.685 -0.937,2.308 -1.458,4.644 -1.459,6.796 0,0.33 0.013,0.655 0.038,0.976 0.183,2.318 1.04,4.396 2.725,5.885 l 0.002,0.002 c 0.733,0.641 1.572,1.131 2.486,1.48 l 0.008,0.002 -0.001,0 c 0.893,0.326 1.866,0.525 2.891,0.61 l 0.005,0 c 0.318,0.023 0.641,0.034 0.97,0.034 0.727,0 1.48,-0.055 2.252,-0.157 1.123,-0.144 2.293,-0.39 3.495,-0.729 4.574,-1.293 9.853,-3.939 15.092,-7.441 5.43,-3.632 11.02,-8.314 15.859,-13.585 5.212,-5.665 9.733,-12.183 12.242,-18.978 1.347,-3.626 2.141,-7.386 2.141,-11.172 0.001,-4.109 -0.938,-8.245 -3.102,-12.25 -1.383,-2.564 -3.142,-4.703 -5.212,-6.429 -2.145,-1.791 -4.599,-3.109 -7.293,-4.007 -2.755,-0.918 -5.728,-1.377 -8.849,-1.428 -0.203,-0.005 -0.407,-0.005 -0.612,-0.005 -2.982,0 -6.059,0.363 -9.172,1.033 l 0.21,0.977 c 3.054,-0.657 6.062,-1.01 8.962,-1.01 0.199,0 0.396,0 0.595,0.005 3.034,0.05 5.904,0.495 8.549,1.376 2.588,0.863 4.927,2.123 6.969,3.827 1.972,1.644 3.646,3.68 4.972,6.136 2.086,3.858 2.982,7.819 2.982,11.775 0,3.644 -0.763,7.288 -2.078,10.826 -2.445,6.623 -6.891,13.053 -12.041,18.647 -4.777,5.207 -10.315,9.845 -15.679,13.431 -5.171,3.459 -10.381,6.061 -14.806,7.309 -1.161,0.328 -2.284,0.563 -3.353,0.7 -0.737,0.098 -1.446,0.149 -2.123,0.149 -0.306,0 -0.606,-0.01 -0.899,-0.031 l 0.005,-10e-4 c -0.948,-0.076 -1.833,-0.26 -2.628,-0.55 l -0.172,0.469 0.178,-0.467 c -0.814,-0.311 -1.546,-0.741 -2.185,-1.299 l 0.003,0.002 c -1.458,-1.293 -2.218,-3.084 -2.391,-5.215 -0.023,-0.293 -0.035,-0.593 -0.035,-0.897 0,-1.989 0.487,-4.21 1.386,-6.419 1.076,-2.656 2.721,-5.258 4.722,-7.374 2.056,-2.175 4.442,-3.778 6.825,-4.383 0.456,-0.115 0.881,-0.2 1.317,-0.237 l 0.006,-0.001 0.005,0 c 0.256,-0.027 0.507,-0.042 0.757,-0.042 0.178,0 0.356,0.008 0.536,0.024 0.434,0.037 0.856,0.108 1.264,0.216 0.418,0.109 0.814,0.258 1.212,0.454 l -0.008,-0.004 0.01,0.004 c 0.849,0.411 1.41,0.856 1.753,1.305 0.341,0.45 0.481,0.898 0.483,1.413 0,0.452 -0.118,0.957 -0.353,1.507 -0.729,1.747 -2.624,3.872 -4.733,6.07 -2.05,2.144 -4.305,4.364 -5.898,6.534 -1.201,1.634 -2.041,3.228 -2.049,4.797 0,0.44 0.07,0.875 0.221,1.293 l 0.001,0.003 0.001,0.002 c 0.146,0.396 0.388,0.733 0.706,0.976 l 0.003,0.002 c 0.324,0.244 0.713,0.4 1.14,0.466 l 0.007,0 -0.011,-0.002 c 0.227,0.038 0.468,0.058 0.723,0.058 0.206,-0.001 0.42,-0.013 0.642,-0.039 l -0.005,0 c 0.491,-0.055 1.028,-0.159 1.598,-0.328 l -0.142,-0.479 0.133,0.481 c 2.829,-0.784 6.684,-2.84 10.805,-5.663 4.238,-2.905 8.879,-6.716 13.015,-10.957 4.369,-4.483 8.282,-9.543 10.557,-14.632 1.3,-2.904 2.081,-5.844 2.083,-8.71 0.001,-2.565 -0.633,-5.069 -2.073,-7.382 -0.542,-0.877 -1.196,-1.593 -1.94,-2.145 l 0.003,0.002 c -0.75,-0.564 -1.597,-0.962 -2.51,-1.214 l -0.004,-0.002 -0.002,0 c -0.798,-0.21 -1.639,-0.314 -2.529,-0.314 -0.148,0 -0.296,0.003 -0.444,0.009 l 0.004,0 c -1.053,0.03 -2.158,0.188 -3.31,0.469 -1.793,0.429 -3.691,1.13 -5.656,2.021 -1.953,0.885 -3.965,1.968 -6.006,3.166 -2.016,1.19 -4.049,2.494 -6.065,3.835 -2.001,1.339 -3.982,2.709 -5.925,4.077 -1.913,1.344 -3.797,2.662 -5.607,3.913 -1.785,1.231 -3.531,2.39 -5.197,3.426 -1.647,1.023 -3.225,1.925 -4.717,2.648 -1.494,0.726 -2.909,1.272 -4.223,1.605 -0.553,0.141 -1.088,0.242 -1.61,0.299 l 0.055,0.497 -0.049,-0.497 c -0.388,0.039 -0.758,0.064 -1.118,0.064 -0.133,0 -0.266,-0.005 -0.397,-0.011 l -0.007,-0.001 c -0.484,-0.021 -0.962,-0.089 -1.415,-0.205 l 0.011,0.002 -0.013,-0.004 c -0.465,-0.115 -0.919,-0.282 -1.35,-0.496 -1.77,-0.877 -3.028,-1.996 -3.853,-3.308 -0.825,-1.312 -1.223,-2.828 -1.224,-4.535 0,-0.106 0.002,-0.212 0.005,-0.318 0.097,-3.76 2.123,-8.379 5.774,-13.148 3.817,-4.998 9.319,-10.082 15.88,-14.403 6.733,-4.432 14.366,-7.923 21.975,-9.567 l -0.212,-0.977 z"
         id="path118"
         inkscape:connector-curvature="0" />
    </g>
  </g>
</svg>
