<svg width="524" height="439" viewBox="0 0 524 439" fill="none" xmlns="http://www.w3.org/2000/svg">
<g clip-path="url(#clip0_11699_377095)">
<ellipse cx="146.599" cy="43.3018" rx="146.599" ry="43.3018" transform="matrix(0.91179 -0.410657 0.411208 0.911542 -16.2822 107.323)" fill="white"/>
<ellipse cx="84.7014" cy="43.3018" rx="84.7014" ry="43.3018" transform="matrix(0.91179 -0.410657 0.411208 0.911542 15.1099 53.5835)" fill="white"/>
<ellipse cx="76.8785" cy="43.299" rx="76.8785" ry="43.299" transform="matrix(0.83236 -0.554235 0.554671 0.83207 343.899 362.118)" fill="white"/>
<ellipse cx="185.719" cy="120.839" rx="185.719" ry="120.839" transform="matrix(0.980987 -0.194074 0.194375 0.980927 0 99.3994)" fill="white"/>
<ellipse cx="233.152" cy="120.852" rx="233.152" ry="120.852" transform="matrix(0.91179 -0.410657 0.411208 0.911542 39.9644 145.175)" fill="white"/>
<ellipse cx="217.474" cy="120.84" rx="217.474" ry="120.84" transform="matrix(0.973631 -0.228127 0.228476 0.97355 40.3076 241.195)" fill="white"/>
<path d="M421.019 98.4094L386.741 361.836C385.768 364.038 383.818 363.51 381.793 363.526C287.453 351.789 185.657 350.498 94.8979 333.753C105.226 250.909 116.308 168.174 124.111 85.0283C124.74 81.3717 127.721 82.6801 130.237 82.7262C224.208 85.1541 324.457 91.5784 418.507 95.5453C420.009 95.6082 421.153 96.9123 421.019 98.4094Z" fill="#EEEBFF"/>
<path d="M387.773 355.013L422.051 91.5864C422.152 92.6683 422.307 93.7502 422.29 94.8447C422.127 104.879 420.437 116.508 419.636 126.718C413.917 199.612 407.837 272.58 402.256 345.478C402.138 346.983 401.866 351.466 401.019 352.451C400.662 352.866 400.314 353.026 399.798 353.164C398.306 353.554 395.865 353.575 394.201 353.843C392.062 354.187 389.932 354.762 387.773 355.022V355.013Z" fill="#CECFFF"/>
<path d="M148.36 103.047C148.951 103.047 149.429 101.673 149.429 99.9773C149.429 98.282 148.951 96.9077 148.36 96.9077C147.769 96.9077 147.291 98.282 147.291 99.9773C147.291 101.673 147.769 103.047 148.36 103.047Z" fill="#351E8E"/>
<path d="M400.062 93.7921L395.857 93.6496C395.869 90.7226 396.293 87.6824 395.525 84.7806C394.293 80.1176 390.406 76.7294 385.458 78.6751C379.151 81.1575 373.981 90.3871 374.355 97.021C374.631 101.952 376.933 109.425 383.256 108.276C384.011 112.406 383.475 113.715 379.26 112.633C373.512 111.153 370.396 104.72 370.006 99.1932C369.348 89.8756 375.105 77.4925 384.54 74.6201C396.393 71.0138 401.958 83.9168 400.054 93.7921H400.062Z" fill="#CCE0FF"/>
<path d="M338.87 114.772L339.344 113.199C340.891 112.268 341.126 115.321 338.87 114.772Z" fill="#CFE1FF"/>
<path d="M290.344 71.3118C290.319 71.316 290.235 71.4669 289.862 71.555V71.0728L290.344 71.3118Z" fill="#B190F6"/>
<path d="M295.173 71.3116C294.972 71.2948 294.75 71.3074 294.691 71.0684C294.896 71.0809 295.11 71.0767 295.173 71.3116Z" fill="#BEA1F7"/>
<path d="M239.891 103.907L239.648 103.664C239.769 103.701 239.857 103.898 239.891 103.907Z" fill="#BEA1F7"/>
<path d="M202.956 66.481C202.842 66.4642 202.742 66.3552 202.712 66.2378Z" fill="#B190F6"/>
<path d="M275.743 108.784C276.333 108.784 276.812 107.409 276.812 105.714C276.812 104.019 276.333 102.645 275.743 102.645C275.152 102.645 274.673 104.019 274.673 105.714C274.673 107.409 275.152 108.784 275.743 108.784Z" fill="#351E8E"/>
<path d="M159.674 83.8917C160.555 78.6374 160.043 69.5378 153.275 68.6572H152.55C141.656 69.5756 132.822 95.176 145.841 97.8682C146.176 97.9353 146.961 97.8975 147.296 97.8766C147.409 97.8682 147.518 97.8556 147.631 97.8304L148.646 97.6837C150.164 99.5455 148.78 102.598 148.78 102.598L147.514 102.8C146.877 102.9 146.231 102.938 145.585 102.913L144.113 102.858H144.105C127.547 99.4617 133.568 67.4076 150.382 64.5561C161.083 62.3714 165.716 75.0353 164.597 84.0888L159.678 83.8959L159.674 83.8917Z" fill="#B39AFF"/>
<path d="M190.703 104.623C191.293 104.623 191.772 103.249 191.772 101.554C191.772 99.8587 191.293 98.4844 190.703 98.4844C190.112 98.4844 189.633 99.8587 189.633 101.554C189.633 103.249 190.112 104.623 190.703 104.623Z" fill="#351E8E"/>
<path d="M233.396 106.716C233.986 106.716 234.465 105.342 234.465 103.647C234.465 101.951 233.986 100.577 233.396 100.577C232.805 100.577 232.327 101.951 232.327 103.647C232.327 105.342 232.805 106.716 233.396 106.716Z" fill="#351E8E"/>
<path d="M324.202 111.312C324.793 111.312 325.271 109.938 325.271 108.242C325.271 106.547 324.793 105.173 324.202 105.173C323.612 105.173 323.133 106.547 323.133 108.242C323.133 109.938 323.612 111.312 324.202 111.312Z" fill="#351E8E"/>
<path d="M148.351 125.902L179.798 128.543C181.954 128.724 183.558 130.622 183.377 132.778L180.677 164.929C180.496 167.085 178.598 168.689 176.442 168.508L142.99 165.699C140.834 165.517 139.23 163.62 139.411 161.463L141.942 131.319C142.217 128.055 145.088 125.628 148.351 125.902Z" fill="#F9F8FF"/>
<path d="M202.308 85.1622C203.188 79.9079 202.677 70.8083 195.909 69.9277H195.184C184.29 70.8461 175.455 96.4466 188.475 99.1387C188.81 99.2058 189.594 99.1681 189.93 99.1471C190.043 99.1387 190.152 99.1261 190.265 99.101L191.28 98.9542C192.798 100.816 191.414 103.869 191.414 103.869L190.148 104.07C189.511 104.171 188.865 104.208 188.219 104.183L186.747 104.129H186.739C170.18 100.732 176.202 68.6781 193.016 65.8266C203.717 63.6419 208.35 76.3058 207.23 85.3593L202.312 85.1664L202.308 85.1622Z" fill="#B39AFF"/>
<path d="M197.707 129.938L229.154 132.579C231.31 132.76 232.913 134.658 232.732 136.814L230.033 168.965C229.852 171.121 227.954 172.725 225.798 172.544L192.346 169.735C190.19 169.554 188.586 167.656 188.767 165.5L191.298 135.355C191.572 132.091 194.444 129.664 197.707 129.938Z" fill="#F9F8FF"/>
<path d="M244.981 87.2633C245.862 82.009 245.35 72.9094 238.583 72.0288H237.857C226.963 72.9472 218.129 98.5476 231.148 101.24C231.484 101.307 232.268 101.269 232.603 101.248C232.716 101.24 232.825 101.227 232.939 101.202L233.953 101.055C235.471 102.917 234.088 105.97 234.088 105.97L232.821 106.171C232.184 106.272 231.538 106.31 230.892 106.284L229.421 106.23H229.412C212.854 102.833 218.875 70.7792 235.689 67.9277C246.39 65.743 251.023 78.4069 249.904 87.4604L244.985 87.2675L244.981 87.2633Z" fill="#B39AFF"/>
<path d="M247.062 134.894L278.508 137.535C280.664 137.716 282.268 139.614 282.087 141.77L279.387 173.921C279.206 176.077 277.309 177.681 275.153 177.5L241.7 174.691C239.544 174.51 237.941 172.612 238.122 170.456L240.653 140.311C240.927 137.047 243.799 134.62 247.062 134.894Z" fill="#F9F8FF"/>
<path d="M287.34 89.3263C288.22 84.072 287.709 74.9724 280.941 74.0918H280.215C269.322 75.0101 260.487 100.611 273.507 103.303C273.842 103.37 274.626 103.332 274.962 103.311C275.075 103.303 275.184 103.29 275.297 103.265L276.312 103.118C277.83 104.98 276.446 108.033 276.446 108.033L275.18 108.234C274.542 108.335 273.897 108.373 273.251 108.347L271.779 108.293H271.771C255.212 104.896 261.233 72.8422 278.048 69.9907C288.748 67.8059 293.382 80.4699 292.262 89.5234L287.344 89.3305L287.34 89.3263Z" fill="#B39AFF"/>
<path d="M335.788 91.8546C336.668 86.6003 336.157 77.5007 329.389 76.6201H328.663C317.77 77.5385 308.935 103.139 321.955 105.831C322.29 105.898 323.074 105.86 323.41 105.839C323.523 105.831 323.632 105.818 323.745 105.793L324.76 105.647C326.278 107.508 324.894 110.561 324.894 110.561L323.628 110.762C322.99 110.863 322.344 110.901 321.699 110.876L320.227 110.821H320.219C303.66 107.425 309.681 75.3705 326.496 72.519C337.196 70.3343 341.83 82.9982 340.71 92.0517L335.792 91.8588L335.788 91.8546Z" fill="#B39AFF"/>
<path d="M295.583 138.489L327.029 141.13C329.185 141.311 330.789 143.209 330.608 145.365L327.908 177.516C327.727 179.672 325.829 181.276 323.673 181.095L290.221 178.285C288.065 178.104 286.461 176.206 286.643 174.05L289.174 143.905C289.448 140.642 292.319 138.215 295.583 138.489Z" fill="#F9F8FF"/>
<path d="M342.915 143.284L374.361 145.925C376.517 146.106 378.121 148.004 377.94 150.16L375.24 182.311C375.059 184.467 373.161 186.071 371.005 185.89L337.553 183.08C335.397 182.899 333.794 181.001 333.975 178.845L336.506 148.7C336.78 145.437 339.651 143.01 342.915 143.284Z" fill="#F9F8FF"/>
<path d="M144.988 174.132L176.434 176.773C178.59 176.954 180.194 178.852 180.013 181.008L177.313 213.159C177.132 215.315 175.234 216.919 173.078 216.738L139.626 213.928C137.47 213.747 135.867 211.85 136.048 209.693L138.579 179.549C138.853 176.285 141.724 173.858 144.988 174.132Z" fill="#F9F8FF"/>
<path d="M194.341 178.168L225.788 180.809C227.944 180.99 229.548 182.888 229.367 185.044L226.667 217.195C226.486 219.351 224.588 220.955 222.432 220.774L188.98 217.965C186.824 217.784 185.22 215.886 185.401 213.729L187.932 183.585C188.207 180.321 191.078 177.894 194.341 178.168Z" fill="#F9F8FF"/>
<path d="M243.696 183.121L275.143 185.761C277.299 185.942 278.903 187.84 278.722 189.996L276.022 222.147C275.841 224.303 273.943 225.907 271.787 225.726L238.335 222.917C236.179 222.736 234.575 220.838 234.756 218.682L237.287 188.537C237.561 185.273 240.433 182.846 243.696 183.121Z" fill="#F9F8FF"/>
<path d="M292.223 186.719L323.669 189.36C325.825 189.541 327.429 191.439 327.248 193.595L324.549 225.746C324.368 227.902 322.47 229.506 320.314 229.325L286.862 226.515C284.706 226.334 283.102 224.436 283.283 222.28L285.814 192.135C286.088 188.872 288.96 186.445 292.223 186.719Z" fill="#F9F8FF"/>
<path d="M339.549 191.51L370.996 194.151C373.152 194.332 374.755 196.23 374.574 198.386L371.875 230.537C371.694 232.693 369.796 234.297 367.64 234.116L334.188 231.306C332.032 231.125 330.428 229.227 330.609 227.071L333.14 196.926C333.414 193.663 336.286 191.236 339.549 191.51Z" fill="#F9F8FF"/>
<path d="M140.794 220.86L172.24 223.501C174.396 223.682 176 225.58 175.819 227.736L173.12 259.887C172.939 262.043 171.041 263.647 168.885 263.466L135.433 260.657C133.277 260.475 131.673 258.578 131.854 256.421L134.385 226.277C134.659 223.013 137.531 220.586 140.794 220.86Z" fill="#F9F8FF"/>
<path d="M190.147 224.896L221.593 227.537C223.749 227.718 225.353 229.616 225.172 231.772L222.472 263.923C222.291 266.079 220.394 267.683 218.238 267.502L184.785 264.693C182.629 264.512 181.026 262.614 181.207 260.458L183.738 230.313C184.012 227.049 186.883 224.622 190.147 224.896Z" fill="#F9F8FF"/>
<path d="M239.504 229.851L270.95 232.492C273.106 232.673 274.71 234.571 274.529 236.727L271.829 268.878C271.648 271.034 269.751 272.638 267.594 272.457L234.142 269.648C231.986 269.467 230.383 267.569 230.564 265.413L233.095 235.268C233.369 232.004 236.24 229.577 239.504 229.851Z" fill="#F9F8FF"/>
<path d="M288.025 233.447L319.472 236.088C321.628 236.269 323.232 238.166 323.051 240.323L320.351 272.473C320.17 274.629 318.272 276.233 316.116 276.052L282.664 273.243C280.508 273.062 278.904 271.164 279.085 269.008L281.617 238.863C281.891 235.599 284.762 233.173 288.025 233.447Z" fill="#F9F8FF"/>
<path d="M335.351 238.243L366.798 240.883C368.954 241.064 370.557 242.962 370.376 245.119L367.677 277.269C367.496 279.425 365.598 281.029 363.442 280.848L329.99 278.039C327.834 277.858 326.23 275.96 326.411 273.804L328.942 243.659C329.216 240.395 332.088 237.969 335.351 238.243Z" fill="#F9F8FF"/>
<path d="M136.601 268.189L168.048 270.83C170.204 271.011 171.808 272.909 171.627 275.065L168.927 307.215C168.746 309.372 166.848 310.975 164.692 310.794L131.24 307.985C129.084 307.804 127.48 305.906 127.661 303.75L130.192 273.605C130.467 270.342 133.338 267.915 136.601 268.189Z" fill="#F9F8FF"/>
<path d="M185.951 272.226L217.397 274.866C219.553 275.047 221.157 276.945 220.976 279.101L218.277 311.252C218.096 313.408 216.198 315.012 214.042 314.831L180.59 312.022C178.434 311.841 176.83 309.943 177.011 307.787L179.542 277.642C179.816 274.378 182.688 271.951 185.951 272.226Z" fill="#F9F8FF"/>
<path d="M235.308 277.177L266.755 279.818C268.911 279.999 270.514 281.897 270.333 284.053L267.634 316.204C267.453 318.36 265.555 319.964 263.399 319.783L229.947 316.973C227.791 316.792 226.187 314.894 226.368 312.738L228.899 282.593C229.173 279.33 232.045 276.903 235.308 277.177Z" fill="#F9F8FF"/>
<path d="M283.833 280.777L315.279 283.418C317.435 283.599 319.039 285.497 318.858 287.653L316.158 319.803C315.977 321.959 314.08 323.563 311.924 323.382L278.471 320.573C276.315 320.392 274.712 318.494 274.893 316.338L277.424 286.193C277.698 282.93 280.57 280.503 283.833 280.777Z" fill="#F9F8FF"/>
<path d="M331.159 285.572L362.605 288.213C364.761 288.394 366.365 290.291 366.184 292.448L363.484 324.598C363.303 326.754 361.405 328.358 359.249 328.177L325.797 325.368C323.641 325.187 322.037 323.289 322.218 321.133L324.75 290.988C325.024 287.724 327.895 285.298 331.159 285.572Z" fill="#F9F8FF"/>
<path d="M195.972 145.828C192.844 136.585 185.548 130.19 177.736 128.861C169.459 126.463 159.337 130.107 152.829 138.565C144.745 149.073 145.298 163.033 154.07 169.742C158.335 173.005 163.756 173.948 169.132 172.854C173.933 175.76 179.489 176.687 184.688 174.938C195.167 171.415 200.215 158.382 195.968 145.832L195.972 145.828Z" fill="#00214D"/>
<path d="M179.871 163.155L181.88 154.592C183.901 145.983 178.902 137.378 170.772 135.47C162.642 133.562 154.339 139.043 152.318 147.652L150.31 156.215C148.335 164.622 153.06 173.026 160.86 175.19L159.941 179.408L175.041 183.446L179.871 163.159V163.155Z" fill="#ECC394"/>
<path d="M181.353 163.579C185.194 163.579 188.309 160.464 188.309 156.622C188.309 152.78 185.194 149.665 181.353 149.665C177.511 149.665 174.396 152.78 174.396 156.622C174.396 160.464 177.511 163.579 181.353 163.579Z" fill="#ECC394"/>
<path d="M190.48 149.03C192.814 145.926 189.404 139.424 182.863 134.507C176.323 129.591 169.13 128.123 166.797 131.227C164.463 134.332 167.873 140.834 174.414 145.75C180.954 150.666 188.147 152.135 190.48 149.03Z" fill="#00214D"/>
<path d="M159.758 141.898C165.528 138.567 169.331 134.351 168.251 132.481C167.172 130.612 161.62 131.798 155.85 135.129C150.08 138.46 146.278 142.676 147.357 144.546C148.436 146.415 153.988 145.23 159.758 141.898Z" fill="#00214D"/>
<path d="M154.256 153.523C154.921 153.523 155.46 152.984 155.46 152.319C155.46 151.655 154.921 151.116 154.256 151.116C153.592 151.116 153.053 151.655 153.053 152.319C153.053 152.984 153.592 153.523 154.256 153.523Z" fill="#0F1218"/>
<path d="M165.044 154.248C165.709 154.248 166.247 153.709 166.247 153.044C166.247 152.38 165.709 151.841 165.044 151.841C164.379 151.841 163.841 152.38 163.841 153.044C163.841 153.709 164.379 154.248 165.044 154.248Z" fill="#0F1218"/>
<path d="M158.994 151.463L158.99 151.462C158.786 151.417 158.585 151.546 158.541 151.75L156.834 159.55C156.79 159.753 156.919 159.955 157.122 159.999L157.127 160C157.33 160.045 157.531 159.916 157.576 159.712L159.282 151.912C159.327 151.709 159.198 151.507 158.994 151.463Z" fill="#0F1218"/>
<path d="M336.78 175.213C342.549 171.882 346.352 167.666 345.273 165.796C344.194 163.927 338.641 165.112 332.872 168.444C327.102 171.775 323.299 175.991 324.378 177.861C325.457 179.73 331.01 178.545 336.78 175.213Z" fill="#2F2F4F"/>
<path d="M157.576 165.948C157.576 165.948 161.639 167.575 162.452 163.625" stroke="#0F1218" stroke-miterlimit="10"/>
<path d="M307.844 212.267C309.59 212.267 311.006 210.777 311.006 208.938C311.006 207.099 309.59 205.608 307.844 205.608C306.098 205.608 304.683 207.099 304.683 208.938C304.683 210.777 306.098 212.267 307.844 212.267Z" fill="#F9F8FF"/>
<path d="M72.3607 155.841L87.9338 156.86C92.8943 163.192 85.1035 174.435 77.7992 173.323L70.021 160.966C70.4613 160.55 71.2244 159.775 71.7318 158.642C72.2475 157.493 72.344 156.449 72.3565 155.841H72.3607Z" fill="#F9F8FF"/>
<path d="M83.6565 168.816C83.2582 169.797 82.5915 170.673 81.1113 171.235L220.531 250.67L218.057 253.354L100.068 186.172L228.846 260.197C228.846 260.197 238.1 255.337 237.228 243.395L227.223 237.595L225.521 239.44L87.2542 161.788C87.2248 162.781 87.4555 163.901 86.0508 165.063C86.034 165.075 86.034 165.096 86.0256 165.117L225.383 244.72L222.909 247.403L83.6649 168.807" fill="#FDF19F"/>
<path d="M81.0729 171.214C81.0729 171.214 81.0688 171.239 81.0605 171.276C81.077 171.264 81.0976 171.251 81.114 171.235L81.0729 171.214Z" fill="#EEEBFF"/>
<path d="M220.733 250.796L81.1538 171.281C81.1538 171.281 81.1161 171.306 81.0993 171.323C81.0197 171.638 80.4997 173.093 77.77 173.378L100.107 186.218L217.844 253.899C218.381 253.324 218.913 252.75 219.45 252.175C219.878 251.718 220.305 251.257 220.733 250.8V250.796Z" fill="#FDF1CA"/>
<path d="M83.666 168.808L222.784 248.108L225.384 244.716L86.0267 165.113C86.0267 165.113 86.0267 165.117 86.0267 165.122C86.0267 165.21 86.0477 167.889 83.6702 168.808H83.666Z" fill="#FDF1CA"/>
<path d="M227.218 237.595L87.9324 156.86C87.9324 156.86 89.161 159.087 87.2573 161.779C87.2573 161.779 87.2573 161.783 87.2573 161.788L227.298 240.732L227.222 237.595H227.218Z" fill="#FDF1CA"/>
<path d="M313.19 180.926C313.14 180.83 312.477 179.92 312.519 180.012C312.519 180.012 309.752 174.741 309.668 171.751C309.542 171.076 313.094 167.327 313.723 166.375C322.956 152.478 322.733 139.806 327.958 124.831C334.42 106.314 341.447 89.2004 355.796 75.3204C362.023 69.2987 369.105 62.7068 376.707 58.5386C389.169 51.7034 410.084 45.6482 424.235 47.0026C451.457 49.6109 477.039 70.5819 478.666 99.1009C479.429 112.486 477.886 130.929 471.777 142.922C461.051 163.976 439.616 179.286 417.405 186.516C413.065 187.929 408.889 189.539 404.557 190.998C397.718 193.305 386.976 195.456 379.797 196.295C379.65 196.311 379.499 196.32 379.348 196.316L365.574 195.36C363.255 195.506 359.259 193.804 356.639 193.615C349.368 193.083 341.183 193.863 334.176 195.859C333.338 196.098 329.769 197.565 329.379 197.502C329.317 197.494 326.348 196.924 326.319 196.865L324.411 194.613L322.159 192.613L313.182 180.918L313.19 180.926Z" fill="#FFF6C6"/>
<path d="M339.343 192.906C339.632 197.15 345.541 208.539 350.568 207.696C353.352 207.231 359.197 198.58 361.193 196.139C363.554 193.254 367.085 188.491 370.552 187.115C373.106 186.105 376.871 185.715 379.58 186.08C375.173 187.161 369.777 197.301 368.07 201.335C366.581 204.853 366.158 207.864 365.093 211.328C364.908 211.923 364.154 212.72 364.036 213.123C358.204 217.794 352.983 224.038 344.614 222.6C340.505 221.895 335.431 216.213 333.1 212.867C331.708 210.866 326.659 200.001 326.906 198.043C329.003 197.372 330.949 197.07 332.94 196.248C335.096 195.359 337.31 194.118 339.343 192.906Z" fill="#9ABDEC"/>
<path d="M189.432 236.715C190.044 237.763 187.876 245.831 190.111 245.89L207.789 351.353L207.449 351.693L176.467 353.119L166.558 246.653C166.491 246.209 166.248 245.517 165.98 245.513C164.722 245.651 163.573 251.103 163.363 252.029C155.702 285.719 149.623 319.371 142.088 353.094C141.945 353.383 141.89 353.966 141.685 354.167C141.228 354.624 134.943 354.486 133.789 354.448C133.638 354.444 133.488 354.452 133.337 354.448C130.942 354.368 128.481 354.1 126.07 353.995C125.994 353.995 125.919 353.995 125.844 353.995C121.248 353.79 115.688 353.836 111.222 353.286C109.797 353.11 109.432 352.678 109.319 351.215L145.824 234.757C149.48 235.772 153.321 235.746 157.061 236.12C162.977 236.711 169.275 237.562 175.225 237.252C178.32 237.088 182.14 236.019 185.104 236.12C185.331 236.128 185.561 236.107 185.788 236.12L189.419 236.715H189.432Z" fill="#00214D"/>
<path d="M139.043 186.491C141.056 184.344 144.897 180.956 147.497 179.534C150.507 177.89 153.736 177.245 157.187 177.303C157.392 177.303 160.642 177.425 161.132 177.425C166.164 177.446 167.883 177.207 172.852 176.846C173.301 176.813 173.762 176.876 174.215 176.846C178.71 176.561 179.574 175.827 183.821 178.255C190.857 182.272 203.692 196.32 208.46 203.122C213.479 210.28 211.177 217.144 207.139 224.089C206.95 224.412 206.661 224.898 206.46 225.225C206.141 225.737 205.646 226.567 205.323 227.041C205.038 227.469 204.682 228.03 204.413 228.404C204.179 228.731 203.516 229.687 203.277 229.993C203.017 230.328 202.74 230.626 202.367 231.129L198.69 235.306C198.455 235.469 198.136 235.436 197.935 235.235L189.549 227.116C189.276 226.848 189.209 226.299 189.39 225.963L193.646 218.143C193.646 218.143 194.258 217.3 194.648 216.591C197.205 211.894 199.193 210.695 195.109 206.024C192.799 203.382 189.381 201.541 187.037 198.878C186.555 198.786 186.672 199.084 186.719 199.423C186.807 200.044 187.058 200.795 187.218 201.424C188.408 206.082 189.83 210.506 191.469 215.002C191.742 215.752 191.872 216.868 192.379 217.274C193.063 217.824 193.507 218.059 193.507 218.059C193.436 218.226 191.834 221.187 191.763 221.308C191.545 221.686 190.928 222.81 190.539 223.476L189.31 225.745C189.113 226.106 189.075 226.395 189.163 226.705C189.247 226.991 189.444 227.225 189.679 227.406L190.861 228.299L193.809 229.8C192.027 231.092 186.962 230.676 186.354 232.945C186.048 234.09 186.308 235.755 185.108 236.128C182.144 236.027 178.324 237.101 175.23 237.26C169.275 237.57 162.982 236.719 157.065 236.128C153.321 235.755 149.484 235.78 145.828 234.765C141.874 233.666 141.714 231.67 141.056 227.951C127.307 241.919 117.101 220.29 113.751 209.047C113.365 207.756 112.233 204.451 112.451 203.315C112.635 202.354 114.342 202.199 115.172 202.057L120.623 201.147C121.923 200.937 123.495 200.581 124.938 200.467C126.523 200.342 127.156 200.447 127.663 202.057C127.827 202.577 127.873 203.344 128.116 204.099C128.816 206.267 129.424 208.523 130.347 210.611C130.64 211.274 132.414 215.182 133.332 214.545C134.125 212.289 134.083 208.146 134.058 205.776C134.578 206.07 136.708 207.168 136.708 207.168L143.169 210.947L146.452 191.225C146.528 190.726 146.511 190.819 146.511 190.819L139.035 186.491H139.043Z" fill="#C70000"/>
<path d="M329.334 197.348C329.334 197.348 328.415 195.737 329.099 194.228C329.652 193.007 332.063 190.173 334.269 190.018C334.269 190.018 338.059 184.646 339.2 184.185C339.2 184.185 341.72 183.153 341.569 184.977C341.519 185.581 341.213 186.13 340.772 186.545C339.745 187.506 337.422 189.841 336.789 191.963L337.502 196.492C337.502 196.492 335.082 197.738 329.334 197.352V197.348Z" fill="#936F53"/>
<path d="M314.733 353.537C314.196 353.412 313.685 353.152 313.278 352.749C312.762 352.242 312.334 351.575 312.406 350.887C315.228 322.246 320.293 290.536 340.084 269.897L362.022 249.886C363.394 249.794 363.993 249.865 365.163 248.884C367.042 247.311 367.398 244.363 368.811 242.396C369.532 244.837 371.574 248.104 373.692 249.253C375.834 250.414 379.243 250.351 381.608 250.456C381.529 250.523 388.259 245.302 388.242 245.399L394.762 247.24C395.026 247.647 396.121 253.148 396.573 253.014C396.926 252.909 399.224 249.626 399.626 249.014C400.385 248.607 401.245 248.842 401.978 248.724C401.24 252.465 400.318 256.205 399.626 259.954C393.928 269.603 384.284 274.824 375.885 281.143C374.082 282.498 372.446 284.225 370.639 285.58C362.869 291.404 355.255 295.459 349.963 304.68C341.476 319.47 340.709 332.797 337.661 349.285C337.145 352.082 336.336 358.003 333.032 357.857L314.729 353.521L314.733 353.537Z" fill="#361A8C"/>
<path d="M412.458 257.015C411.725 257.254 382.327 256.499 381.832 256.86L361.068 256.306C358.502 256.461 351.491 256.134 349.21 255.295C346.291 254.226 347.914 248.108 348.367 245.718C350.426 234.878 358.141 221.212 362.242 211.014C362.397 210.624 363.433 208.179 363.672 207.604C365.056 204.271 365.546 203.05 367.358 199.696C369.433 195.854 375.748 186.294 380.239 185.631C380.327 185.618 380.423 185.631 380.515 185.631C380.079 187.027 379.052 187.719 378.339 189.12C375.756 194.198 373.471 201.205 374.427 206.875C375.333 206.082 376.184 204.921 376.863 203.927C380.05 199.255 382.507 192.475 386.755 188.952C387.338 188.47 391.774 186.445 391.849 186.13C392.193 186.021 393.007 185.782 395.745 186.185C393.539 188.072 391.833 189.892 390.713 192.617C388.629 197.683 389.04 202.413 393.715 205.726C396.717 207.852 398.156 208.695 400.454 211.84L404.605 223.153" fill="#C70000"/>
<path d="M393.211 361.677C392.989 361.727 392.787 361.836 392.552 361.807C391.743 361.706 389.055 357.521 388.393 356.511C381.395 345.859 372.501 330.189 370.023 317.009C368.597 309.419 368.866 297.778 370.866 290.36L373.86 281.688C375.667 280.233 377.306 278.38 379.109 276.921C387.512 270.127 397.161 264.521 402.867 254.155C401.991 259.262 401.324 264.533 400.435 269.679C397.647 285.769 394.28 296.21 398.817 312.929C402.595 326.859 408.981 335.791 414.738 347.906C415.178 348.837 416.512 351.244 415.673 352.061L393.211 361.677Z" fill="#361A8C"/>
<path d="M396.439 259.359C395.198 258.688 393.265 258.348 392.988 261.59C392.954 261.992 392.292 262.131 391.676 262.265C391.676 262.265 384.686 264.307 384.405 266.056C384.405 266.056 384.019 267.976 387.738 265.729C387.885 265.64 388.044 265.557 388.208 265.494L389.231 265.083C389.55 264.957 389.512 265.167 389.332 265.456L386.082 271.268C386.011 271.394 385.952 271.52 385.897 271.654C385.608 272.413 384.79 274.845 386.883 273.625C387.373 273.339 387.759 272.903 388.015 272.4L390.439 267.683L387.889 274.484C387.751 274.857 387.684 275.252 387.692 275.65C387.717 276.61 387.998 278.011 389.667 276.111C389.927 275.814 390.124 275.466 390.25 275.092L392.481 268.546C392.481 268.546 392.975 267.624 392.912 268.546C392.862 269.276 391.659 273.419 391.151 275.13C390.984 275.7 390.979 276.304 391.151 276.874C391.445 277.873 392.065 278.971 393.151 276.782C393.273 276.539 393.365 276.275 393.42 276.011L394.955 268.546C394.955 268.546 395.265 267.93 395.449 268.546C395.449 268.546 394.212 276.183 395.449 275.872C395.449 275.872 396.254 276.958 397.076 275.658C397.315 275.285 397.437 274.849 397.483 274.409L398.045 268.802C398.087 268.375 398.217 267.968 398.426 267.595C398.93 266.701 399.907 265.07 400.397 264.848C401.076 264.542 400.707 264.416 400.707 264.416C400.707 264.416 398.862 260.667 396.435 259.355L396.439 259.359Z" fill="#936F53"/>
<path d="M400.729 188.466C403.094 191.389 402.654 190.122 404.696 193.762C406.755 197.431 407.174 198.295 409.212 201.981C410.81 204.862 413.72 214.687 413.933 218.017C414.403 225.292 414.717 237.231 411.975 245.689C410.612 249.886 407.547 257.367 405.396 261.787C405.031 262.542 402.738 266.567 402.302 266.676C401.74 266.819 400.591 265.582 400.264 265.137C399.996 264.773 400.088 264.467 399.299 263.565C397.585 261.615 396.306 260.575 393.815 259.783C393.144 259.569 392.716 259.594 392.201 259.464C391.84 259.376 391.182 258.021 390.859 257.841C393.974 253.992 396.784 247.718 398.209 242.984C402.289 229.448 400.18 220.885 400.18 220.885C397.945 213.081 398.26 214.15 395.643 210.636C395.643 210.636 394.725 209.596 393.157 208.506C387.706 204.728 387.24 199.335 389.681 193.569C390.993 190.466 392.989 188.399 395.568 186.252C397.522 186.537 399.396 186.805 400.734 188.462L400.729 188.466Z" fill="#9ABDEC"/>
<path d="M416.059 358.515C416.642 358.85 417.791 358.804 418.881 359.479C419.724 359.999 423.795 364.096 424.005 364.855C424.11 365.228 424.105 365.589 423.787 365.845C418.042 369.979 413.09 375.372 406.88 378.764C402.448 377.892 397.932 377.85 393.467 377.498C392.259 377.402 389.496 377.276 388.514 376.932C387.86 376.706 388.003 374.429 388.225 373.837C388.288 373.674 388.582 373.619 388.598 373.573C391.169 373.879 393.76 374.08 396.335 374.357C399.102 374.659 402.503 375.355 405.182 375.418C406.981 375.46 406.985 375.414 408.314 374.357C412.859 370.747 416.835 366.26 421.543 362.838C418.315 364.453 415.338 367.35 412.553 369.77C411.228 370.923 409.379 373.212 408.063 374.093C406.054 375.439 403.228 374.248 400.943 374.093C400.402 374.055 399.865 374.106 399.328 374.093L388.846 373.045C388.997 372.298 388.896 371.552 389.164 370.629C390.666 365.488 395.727 364.809 400.196 365.195C401.366 365.295 404.314 365.61 404.57 367.023C403.874 367.229 403.366 368.474 403.073 369.116C404.125 369.149 404.046 367.665 404.817 367.287L405.195 370.692C405.916 370.692 405.086 367.3 405.069 367.023C405.882 367.149 406.448 368.063 407.316 368.067C406.855 367.174 405.429 367.153 405.32 365.975C405.836 364.96 409.635 363.077 409.576 362.469L416.055 358.506L416.059 358.515Z" fill="#49515B"/>
<path d="M200.141 353.907C203.311 352.619 212.506 353.131 215.164 354.494C217.814 355.852 218.569 358.511 218.267 361.379C218.07 363.258 216.594 363.212 214.946 363.505C211.051 364.197 199.537 365.581 196.191 364.382C195.499 364.134 195.407 363.887 194.992 363.308L194.669 364.117C194.262 364.415 190.685 363.899 190.438 363.547L190.379 354.464L200.136 353.907H200.141Z" fill="#49515B"/>
<path d="M134.091 356.091C134.091 356.091 134.066 358.993 134.024 361.148C134.007 361.894 133.743 364.574 133.534 365.199C133.429 365.513 133.294 365.522 133.005 365.576C131.269 365.903 127.709 365.534 126.003 364.939C121.176 365.635 115.264 365.568 110.358 364.834C106.639 364.28 105.033 364.113 106.606 360.066C109.033 353.822 117.185 354.003 122.715 354.975C123.504 355.114 125.005 355.613 124.946 355.583C124.946 355.583 125.567 355.554 125.856 355.583L134.095 356.091H134.091Z" fill="#49515B"/>
<path d="M300.234 363.099C299.454 362.86 298.351 362.621 297.907 361.983C298.523 360.914 299.211 359.727 300.108 358.855C303.341 355.714 309.522 355.584 313.589 356.599L321.946 358.843L332.827 361.761H333.062C332.638 363.3 332.659 365.653 332.361 367.334H331.196C324.73 367.334 321.044 367.212 314.729 366.344C314.599 366.328 314.469 366.303 314.339 366.273L300.23 363.099H300.234Z" fill="#49515B"/>
<path d="M313.576 366.47C318.389 367.435 325.262 368.06 330.163 367.791C330.6 367.766 331.036 367.841 331.199 367.334H332.365C332.235 368.076 331.69 371.335 331.052 371.54C322.826 371.876 314.729 370.471 306.745 368.793C305.311 368.491 297.533 366.948 296.975 366.336C296.241 365.535 297.034 363.539 297.445 362.654C298.334 362.994 300.128 363.476 301.022 363.694C305.248 364.709 308.099 365.43 312.045 366.185L313.584 366.479L313.576 366.47Z" fill="#49515B"/>
<path d="M134.023 354.493C133.981 354.93 134.09 356.066 134.09 356.066C134.09 356.066 129.075 355.835 126.757 355.63V354.041C129.172 354.145 131.633 354.414 134.023 354.493Z" fill="#ECC394"/>
<path d="M197.664 352.149L197.743 354.036C197.743 354.036 192.456 354.355 190.38 354.468V354.154C190.38 354.154 190.426 353.097 190.368 352.485C192.787 352.393 195.244 352.233 197.664 352.149Z" fill="#ECC394"/>
<path d="M194.567 231.913C194.567 231.913 190.852 232.979 190.592 233.868C190.441 234.379 191.259 235.268 192.081 236.191C193.091 237.327 193.427 238.908 192.966 240.359C192.123 242.984 191.561 246.058 189.938 248.117C189.833 248.251 189.645 248.18 189.452 248.041C189.129 247.806 188.949 247.421 188.936 247.022L188.659 238.413C188.634 237.927 188.278 237.516 187.795 237.432L186.739 237.298L186.097 239.73C185.951 240.283 185.519 240.715 184.965 240.858C184.76 240.912 184.558 240.77 184.533 240.56C184.336 238.9 185.439 232.668 186.085 231.729C186.881 230.567 189.867 229.343 190.898 228.207C192.265 229.448 193.309 230.819 194.567 231.922V231.913Z" fill="#ECC394"/>
<path d="M315.987 192.244L413.484 119.002C432.504 107.072 441.259 119.166 441.259 119.166C442.312 120.39 447.243 126.383 446.409 134.656C445.503 143.647 438.471 148.557 436.303 150.071C427.779 156.026 415.996 156.244 406.918 151.337C397.643 146.322 390.72 139.315 389.81 136.736L381.332 126.894C379.072 125.351 373.524 119.061 371.059 108.808C368.644 98.7736 371.881 87.439 379.822 80.7296C381.839 79.0229 388.393 73.4877 397.316 74.9176C405.526 76.2343 410.054 82.5411 410.964 83.8704C410.964 83.8704 420.407 95.4357 403.995 110.758L312.192 181.907" stroke="white" stroke-width="4" stroke-miterlimit="10"/>
<path d="M330.432 361.533C328.273 360.972 325.065 359.923 322.956 359.319L323.74 356.434L323.92 355.625C326.658 356.275 330.927 357.013 333.757 357.772L332.923 362.087" fill="#936F53"/>
<path d="M414.201 352.904L416.507 358.842L409.32 363.031L403.815 356.648C406.641 355.68 414.201 352.904 414.201 352.904Z" fill="#936F53"/>
<path d="M391.845 186.126C391.769 186.441 387.333 188.474 386.75 188.961C382.503 192.5 380.045 199.302 376.859 203.99C376.179 204.988 375.328 206.154 374.422 206.95C373.466 201.256 375.756 194.224 378.335 189.129C379.047 187.724 380.071 187.028 380.511 185.627C382.44 185.564 384.666 186.889 386.746 187.011C388.067 187.086 390.595 186.361 391.841 186.126H391.845Z" fill="#9ABDEC"/>
<path d="M217.801 253.853C217.801 253.853 219.361 252.189 219.629 251.908C223.189 248.18 226.854 242.54 226.9 237.26L237.227 243.395C237.802 248.062 236.007 253.308 233.022 256.898C232.338 257.72 229.827 260.265 228.841 260.198L217.801 253.853Z" fill="#F39BD3"/>
<path d="M368.184 146.23C370.062 147.367 373.262 146.926 375.333 145.245C377.404 143.563 377.987 141.295 376.109 140.158" fill="#00214D"/>
<path d="M366.326 153.04C368.423 153.812 371.459 152.801 373.102 150.776C374.746 148.755 374.381 146.486 372.285 145.714" fill="#00214D"/>
<path d="M366.975 161.44C369.239 161.586 371.764 159.771 372.615 157.389C373.466 155.007 372.321 152.961 370.061 152.814" fill="#00214D"/>
<path d="M414.107 153.216C403.612 140.817 404.97 135.059 397.335 133.692C389.242 131.226 379.346 134.971 372.986 143.664C365.082 154.466 374.202 175.714 374.202 175.714C378.37 179.069 383.67 180.033 388.923 178.909C393.616 181.899 397.528 182.025 404.132 181.048L402.073 176.997C401.935 176.724 401.83 176.435 401.763 176.137L401.415 174.577L408.811 173.877L406.287 167.503L411.336 167.893L408.203 158.953L413.164 159.188L409.247 152.659L414.103 153.216H414.107Z" fill="#00214D"/>
<path d="M397.779 168.942L399.636 160.14C401.502 151.292 396.886 142.448 389.38 140.485C381.87 138.523 374.201 144.159 372.335 153.007L370.478 161.809C368.654 170.451 366.742 179.396 380.222 181.312L379.375 185.648L382.16 189.162L391.779 186.218L397.783 168.946L397.779 168.942Z" fill="#936F53"/>
<path d="M399.145 169.378C402.693 169.378 405.569 166.177 405.569 162.228C405.569 158.28 402.693 155.079 399.145 155.079C395.597 155.079 392.721 158.28 392.721 162.228C392.721 166.177 395.597 169.378 399.145 169.378Z" fill="#936F53"/>
<path d="M373.993 142.511C376.282 145.132 381.683 145.803 386.056 144.008C390.43 142.217 392.124 138.64 389.834 136.02" fill="#00214D"/>
<path d="M391.448 135.202C388.92 137.638 389.045 142.511 391.729 146.08C394.413 149.648 398.635 150.567 401.163 148.13" fill="#00214D"/>
<path d="M372.205 137.957C373.291 139.735 376.364 140.653 379.069 140.007C381.773 139.362 383.081 137.391 381.995 135.613" fill="#00214D"/>
<path d="M380.591 133.931C381.346 135.843 384.214 137.185 386.998 136.933C389.782 136.682 391.426 134.925 390.671 133.013" fill="#00214D"/>
<path d="M375.684 158.483C376.446 158.483 377.064 157.865 377.064 157.103C377.064 156.341 376.446 155.724 375.684 155.724C374.922 155.724 374.305 156.341 374.305 157.103C374.305 157.865 374.922 158.483 375.684 158.483Z" fill="#0F1218"/>
<path d="M388.058 159.318C388.82 159.318 389.437 158.7 389.437 157.938C389.437 157.176 388.82 156.559 388.058 156.559C387.296 156.559 386.678 157.176 386.678 157.938C386.678 158.7 387.296 159.318 388.058 159.318Z" fill="#0F1218"/>
<path d="M381.45 156.661C381.502 156.425 381.353 156.193 381.118 156.142C380.882 156.09 380.65 156.239 380.598 156.474L378.643 165.413C378.592 165.648 378.741 165.881 378.976 165.932C379.211 165.984 379.444 165.835 379.495 165.599L381.45 156.661Z" fill="#0F1218"/>
<path d="M380.778 170.384C380.778 170.384 385.487 171.068 387.654 169.038C387.793 168.908 388.011 169.013 387.994 169.202C387.91 170.196 387.571 172.569 385.86 173.181" stroke="#0F1218" stroke-miterlimit="10"/>
<path d="M115.872 201.943C115.872 201.943 117.277 198.48 116.585 197.75C116.187 197.331 114.933 197.524 113.642 197.7C112.057 197.918 110.404 197.305 109.293 196.085C107.281 193.875 104.706 191.649 103.628 189.091C103.557 188.923 103.721 188.801 103.951 188.717C104.337 188.575 104.79 188.642 105.171 188.856L113.348 193.515C113.818 193.77 114.241 193.947 114.572 193.586L114.971 193.326L115.604 192.898L113.453 190.579C113.013 190.139 112.836 189.527 112.992 188.969C113.05 188.764 113.285 188.671 113.495 188.772C115.147 189.544 120.388 194.03 120.929 195.117C121.596 196.454 122.631 199.184 123.156 200.706C121.29 201.168 117.6 201.654 115.868 201.939L115.872 201.943Z" fill="#ECC394"/>
<path d="M72.3892 164.601L65.978 155.225L77.8738 156.218C77.8738 156.218 79.7062 163.171 72.3892 164.597V164.601Z" fill="#8A95A0"/>
<path d="M279.836 189.233C279.836 189.233 269.63 209.085 294.688 222.386C294.688 222.386 296.885 223.422 297.95 220.47C297.95 220.47 300.562 220.675 300.537 218.545C300.537 218.545 304.927 219.275 304.701 215.844C304.701 215.844 308.47 216.419 308.844 212.783C308.844 212.783 313.297 212.729 314.11 208.099C314.11 208.099 318.395 207.911 318.01 203.503C318.01 203.503 321.599 203.449 321.385 199.088C321.385 199.088 328.199 200.555 327.612 195.544C327.612 195.544 314.11 188.781 310.164 168.124C310.164 168.124 303.69 169.348 304.214 174.137C304.214 174.137 300.554 173.626 299.594 177.37C299.594 177.37 296.256 176.557 295.698 180.444C295.698 180.444 290.578 180.193 290.792 184.545C290.792 184.545 287.09 184.264 286.494 187.476C286.494 187.476 284.666 185.434 282.897 188.89C282.897 188.89 281.375 186.755 279.84 189.242L279.836 189.233Z" fill="#D3DAE0"/>
</g>
<defs>
<clipPath id="clip0_11699_377095">
<rect width="524" height="439" fill="white"/>
</clipPath>
</defs>
</svg>
