<svg
  xmlns="http://www.w3.org/2000/svg"
  fill="none"
  viewBox="0 0 54 49"
>
  <path
    fill="#fff"
    stroke="#000"
    stroke-width="2"
    d="M25 47 7.5 39.8a2 2 0 0 1 0-3.6l19-7.9a2 2 0 0 1 1.6 0l18.5 7.9a2 2 0 0 1 0 3.6l-17 7.2a6 6 0 0 1-4.6 0Z"
  />
  <path
    fill="#fff"
    stroke="#0F1218"
    stroke-width="2"
    d="m13.8 36 1 .4-1-.3c-.3 1.1 0 2.5 1.4 3.1 1.8.8 5.4 2 12.2 2a31 31 0 0 0 12.2-2c1.4-.5 1.7-2 1.3-3.2L29.8 5a3 3 0 0 0-5.7.2L13.8 36Z"
  />
  <path
    stroke="#000"
    stroke-width="2"
    d="M21.8 14.8s2 1.4 5.4 1.4c3.4 0 5.4-1.4 5.4-1.4M17 26s3.6 3 10 3 10-3 10-3"
  />
</svg>
