<svg xmlns="http://www.w3.org/2000/svg" width="302.115" height="391.936">
  <path fill="#fff" d="M52.193 129.983c-2.688-9.1-5.27-18.222-7.209-26.959a43.338 43.338 0 1163.984-27.631 211.671 211.671 0 0110.417 29.815 65.748 65.748 0 10-67.191 24.775z"/>
  <path fill="#fff" d="M6.691 285.948c16.236-17.55 34.459-10.677 58.851-6.965 20.956 3.223 41.592-2.658 40.217-13.976-2.169-18.314-5.224-26.5-12.174-50.222-5.545-18.864-16.068-52.864-25.645-85.367-12.83-43.486-16.541-63.678.535-68.719 18.405-5.361 28.96 20.788 38.522 57.049 10.89 41.271 16.618 59.493 19.826 58.531 5.651-1.619-2.077-19.276 12.708-23.629 18.482-5.377 22.056 9.073 27.234 7.622 5.178-1.558 3.421-16.191 18.161-20.5 14.816-4.277 22.255 13.961 28.364 12.143 6.049-1.787 5.911-8.37 15.045-10.982 9.149-2.719 43.577 12.693 63.281 80.006 24.729 84.634-3.131 100.367 5.315 129.021l-110.386 41.975c-8.935-21.491-36.612-23.079-61.1-36.78-24.665-13.882-41.421-40.935-105.71-39.621-24.175.489-23.033-18.787-13.044-29.586z"/>
</svg>
