<svg
  width="24"
  height="24"
  viewBox="0 0 24 24"
  xmlns="http://www.w3.org/2000/svg"
>
<path
    fill-rule="evenodd"
    clip-rule="evenodd"
    d="M9.06018 2.00098L18.6898 2.00098C19.5677 2.00098 20.4097 2.33482 21.0305 2.92907C21.6513 3.52332 22 4.3293 22 5.1697V14.3878C22 15.2282 21.6513 16.0342 21.0305 16.6284C20.4097 17.2227 19.5677 17.5565 18.6898 17.5565H17V18.8317C17 19.6721 16.6781 20.478 16.105 21.0723C15.532 21.6666 14.7548 22.0004 13.9444 22.0004L5.05556 22.0004C4.24517 22.0004 3.46798 21.6666 2.89495 21.0723C2.32192 20.4781 2 19.6721 2 18.8317V9.61358C2 8.77318 2.32192 7.9672 2.89495 7.37295C3.46798 6.7787 4.24517 6.44485 5.05556 6.44485L5.75 6.44485L5.75 5.1697C5.75 4.3293 6.09875 3.52333 6.71953 2.92908C7.34031 2.33482 8.18227 2.00098 9.06018 2.00098ZM7.55555 6.44485L13.9444 6.44484C14.7548 6.44484 15.532 6.77869 16.105 7.37294C16.6781 7.96719 17 8.77317 17 9.61357V15.8281H18.6898C19.0889 15.8281 19.4716 15.6764 19.7538 15.4063C20.0359 15.1362 20.1944 14.7698 20.1944 14.3878L20.1944 5.1697C20.1944 4.7877 20.0359 4.42135 19.7537 4.15123C19.4716 3.88112 19.0889 3.72937 18.6898 3.72937L9.06018 3.72937C8.66113 3.72937 8.27842 3.88112 7.99625 4.15123C7.71408 4.42135 7.55555 4.7877 7.55555 5.1697V6.44485ZM4.07346 19.8501C4.33393 20.1203 4.6872 20.272 5.05556 20.272L13.9444 20.272C14.3128 20.272 14.6661 20.1203 14.9265 19.8501C15.187 19.58 15.3333 19.2137 15.3333 18.8317V9.61357C15.3333 9.23157 15.187 8.86521 14.9265 8.5951C14.6661 8.32499 14.3128 8.17324 13.9444 8.17324L5.05556 8.17324C4.6872 8.17324 4.33393 8.32499 4.07346 8.59511C3.813 8.86522 3.66667 9.23158 3.66667 9.61357L3.66667 18.8317C3.66667 19.2137 3.813 19.58 4.07346 19.8501Z"
  />
<path
    d="M10.2942 14.2709L13.6399 17.6166C13.6957 17.6685 13.7404 17.7312 13.7714 17.8008C13.8025 17.8705 13.8192 17.9457 13.8205 18.0219C13.8218 18.0981 13.8078 18.1738 13.7793 18.2445C13.7507 18.3152 13.7082 18.3794 13.6543 18.4333C13.6004 18.4872 13.5362 18.5297 13.4655 18.5583C13.3948 18.5868 13.3191 18.6009 13.2429 18.5995C13.1666 18.5982 13.0915 18.5815 13.0218 18.5505C12.9522 18.5194 12.8895 18.4747 12.8375 18.4189L9.49183 15.0732L6.14613 18.4189C6.03851 18.5192 5.89617 18.5738 5.74909 18.5712C5.60202 18.5686 5.46169 18.509 5.35767 18.405C5.25366 18.301 5.19408 18.1607 5.19148 18.0136C5.18889 17.8665 5.24348 17.7242 5.34376 17.6166L8.68947 14.2709L5.34376 10.9251C5.23745 10.8187 5.17774 10.6744 5.17774 10.524C5.17774 10.3735 5.23745 10.2292 5.34376 10.1228C5.45021 10.0165 5.5945 9.95675 5.74495 9.95675C5.89539 9.95675 6.03968 10.0165 6.14613 10.1228L9.49183 13.4685L12.8375 10.1228C12.944 10.0165 13.0883 9.95675 13.2387 9.95675C13.3892 9.95675 13.5335 10.0165 13.6399 10.1228C13.7462 10.2292 13.8059 10.3735 13.8059 10.524C13.8059 10.6744 13.7462 10.8187 13.6399 10.9251L10.2942 14.2709Z"
  />
</svg>
